
{61,64,67}
{62,65,68}
{63,66,69}
{64,68,70}

{63,66}
{63,66}

2, 480, Note_on_c, 0, 61, 110
2, 480, Note_on_c, 0, 64, 110

2, 528, Note_on_c, 0, 61, 110
2, 528, Note_on_c, 0, 64, 110

2, 576, Note_on_c, 0, 63, 110
2, 576, Note_on_c, 0, 66, 110

2, 624, Note_on_c, 0, 64, 110
2, 624, Note_on_c, 0, 68, 110

2, 672, Note_on_c, 0, 63, 110
2, 672, Note_on_c, 0, 66, 110

2, 720, Note_on_c, 0, 61, 110
2, 720, Note_on_c, 0, 64, 110

2, 912, Note_on_c, 0, 63, 110
2, 912, Note_on_c, 0, 66, 110
2, 912, Note_on_c, 0, 70, 110

2, 1008, Note_on_c, 0, 64, 110
2, 1008, Note_on_c, 0, 68, 110
2, 1008, Note_on_c, 0, 70, 110

2, 1104, Note_on_c, 0, 66, 110
2, 1104, Note_on_c, 0, 68, 110
2, 1104, Note_on_c, 0, 71, 110

2, 1200, Note_on_c, 0, 66, 110
2, 1200, Note_on_c, 0, 70, 110
2, 1200, Note_on_c, 0, 73, 110

2, 1320, Note_on_c, 0, 66, 110
2, 1320, Note_on_c, 0, 68, 110

2, 1368, Note_on_c, 0, 64, 110
2, 1368, Note_on_c, 0, 68, 110

2, 1416, Note_on_c, 0, 63, 110
2, 1416, Note_on_c, 0, 66, 110

2, 1464, Note_on_c, 0, 63, 110
2, 1464, Note_on_c, 0, 66, 110

2, 1512, Note_on_c, 0, 64, 110
2, 1512, Note_on_c, 0, 68, 110

2, 1560, Note_on_c, 0, 66, 110
2, 1560, Note_on_c, 0, 70, 110

2, 1608, Note_on_c, 0, 63, 110
2, 1608, Note_on_c, 0, 66, 110

2, 1800, Note_on_c, 0, 64, 110
2, 1800, Note_on_c, 0, 68, 110

2, 1896, Note_on_c, 0, 63, 110
2, 1896, Note_on_c, 0, 66, 110

2, 1944, Note_on_c, 0, 63, 110
2, 1944, Note_on_c, 0, 66, 110

2, 1992, Note_on_c, 0, 61, 110
2, 1992, Note_on_c, 0, 64, 110

2, 2040, Note_on_c, 0, 61, 110
2, 2040, Note_on_c, 0, 64, 110

2, 2088, Note_on_c, 0, 63, 110
2, 2088, Note_on_c, 0, 66, 110

2, 2136, Note_on_c, 0, 64, 110
2, 2136, Note_on_c, 0, 68, 110

2, 2184, Note_on_c, 0, 63, 110
2, 2184, Note_on_c, 0, 66, 110

2, 2232, Note_on_c, 0, 61, 110
2, 2232, Note_on_c, 0, 64, 110

2, 2424, Note_on_c, 0, 63, 110
2, 2424, Note_on_c, 0, 66, 110
2, 2424, Note_on_c, 0, 70, 110

2, 2520, Note_on_c, 0, 64, 110
2, 2520, Note_on_c, 0, 68, 110
2, 2520, Note_on_c, 0, 70, 110

2, 2616, Note_on_c, 0, 66, 110
2, 2616, Note_on_c, 0, 68, 110
2, 2616, Note_on_c, 0, 71, 110

2, 2712, Note_on_c, 0, 66, 110
2, 2712, Note_on_c, 0, 70, 110
2, 2712, Note_on_c, 0, 73, 110

2, 2784, Note_on_c, 0, 66, 110
2, 2784, Note_on_c, 0, 68, 110

2, 2832, Note_on_c, 0, 64, 110
2, 2832, Note_on_c, 0, 68, 110

2, 2880, Note_on_c, 0, 63, 110
2, 2880, Note_on_c, 0, 66, 110

2, 2928, Note_on_c, 0, 63, 110
2, 2928, Note_on_c, 0, 66, 110

2, 2976, Note_on_c, 0, 64, 110
2, 2976, Note_on_c, 0, 68, 110

2, 3024, Note_on_c, 0, 66, 110
2, 3024, Note_on_c, 0, 70, 110

2, 3072, Note_on_c, 0, 63, 110
2, 3072, Note_on_c, 0, 66, 110

2, 3360, Note_on_c, 0, 64, 110
2, 3360, Note_on_c, 0, 68, 110
2, 3360, Note_on_c, 0, 70, 110

2, 3456, Note_on_c, 0, 63, 110
2, 3456, Note_on_c, 0, 66, 110
2, 3456, Note_on_c, 0, 70, 110

2, 3552, Note_on_c, 0, 63, 110
2, 3552, Note_on_c, 0, 66, 110
2, 3552, Note_on_c, 0, 68, 110

2, 3648, Note_on_c, 0, 61, 110
2, 3648, Note_on_c, 0, 64, 110
2, 3648, Note_on_c, 0, 68, 110

2, 3744, Note_on_c, 0, 61, 110
2, 3744, Note_on_c, 0, 64, 110

2, 3792, Note_on_c, 0, 63, 110
2, 3792, Note_on_c, 0, 66, 110

2, 3840, Note_on_c, 0, 64, 110
2, 3840, Note_on_c, 0, 68, 110

2, 3888, Note_on_c, 0, 63, 110
2, 3888, Note_on_c, 0, 66, 110

2, 3936, Note_on_c, 0, 61, 110
2, 3936, Note_on_c, 0, 64, 110

2, 3984, Note_on_c, 0, 63, 110
2, 3984, Note_on_c, 0, 66, 110

2, 4032, Note_on_c, 0, 61, 110
2, 4032, Note_on_c, 0, 64, 110

2, 4080, Note_on_c, 0, 63, 110
2, 4080, Note_on_c, 0, 66, 110

2, 4368, Note_on_c, 0, 66, 110
2, 4368, Note_on_c, 0, 70, 110
2, 4368, Note_on_c, 0, 73, 110

2, 4464, Note_on_c, 0, 66, 110
2, 4464, Note_on_c, 0, 68, 110
2, 4464, Note_on_c, 0, 71, 110

2, 4560, Note_on_c, 0, 64, 110
2, 4560, Note_on_c, 0, 68, 110
2, 4560, Note_on_c, 0, 70, 110

2, 4656, Note_on_c, 0, 63, 110
2, 4656, Note_on_c, 0, 66, 110
2, 4656, Note_on_c, 0, 70, 110

2, 4752, Note_on_c, 0, 63, 110
2, 4752, Note_on_c, 0, 66, 110

2, 4800, Note_on_c, 0, 64, 110
2, 4800, Note_on_c, 0, 68, 110

2, 4848, Note_on_c, 0, 66, 110
2, 4848, Note_on_c, 0, 68, 110

2, 4896, Note_on_c, 0, 64, 110
2, 4896, Note_on_c, 0, 68, 110

2, 4944, Note_on_c, 0, 63, 110
2, 4944, Note_on_c, 0, 66, 110

2, 4992, Note_on_c, 0, 63, 110
2, 4992, Note_on_c, 0, 66, 110

2, 5040, Note_on_c, 0, 64, 110
2, 5040, Note_on_c, 0, 68, 110

2, 5088, Note_on_c, 0, 63, 110
2, 5088, Note_on_c, 0, 66, 110

2, 5280, Note_on_c, 0, 61, 110
2, 5280, Note_on_c, 0, 64, 110

2, 5328, Note_on_c, 0, 63, 110
2, 5328, Note_on_c, 0, 66, 110

2, 5376, Note_on_c, 0, 64, 110
2, 5376, Note_on_c, 0, 68, 110

2, 5424, Note_on_c, 0, 63, 110
2, 5424, Note_on_c, 0, 66, 110

2, 5472, Note_on_c, 0, 64, 110
2, 5472, Note_on_c, 0, 68, 110

2, 5520, Note_on_c, 0, 63, 110
2, 5520, Note_on_c, 0, 66, 110

2, 5568, Note_on_c, 0, 61, 110
2, 5568, Note_on_c, 0, 64, 110

2, 5616, Note_on_c, 0, 63, 110
2, 5616, Note_on_c, 0, 66, 110

2, 5664, Note_on_c, 0, 61, 110
2, 5664, Note_on_c, 0, 64, 110

2, 5712, Note_on_c, 0, 63, 110
2, 5712, Note_on_c, 0, 66, 110

2, 5760, Note_on_c, 0, 64, 110
2, 5760, Note_on_c, 0, 68, 110

2, 5808, Note_on_c, 0, 63, 110
2, 5808, Note_on_c, 0, 66, 110

2, 5856, Note_on_c, 0, 58, 110
2, 5856, Note_on_c, 0, 61, 110
2, 5856, Note_on_c, 0, 64, 110

2, 5952, Note_on_c, 0, 61, 110
2, 5952, Note_on_c, 0, 63, 110
2, 5952, Note_on_c, 0, 66, 110

2, 6048, Note_on_c, 0, 63, 110
2, 6048, Note_on_c, 0, 66, 110
2, 6048, Note_on_c, 0, 68, 110

2, 6144, Note_on_c, 0, 64, 110
2, 6144, Note_on_c, 0, 68, 110
2, 6144, Note_on_c, 0, 70, 110

2, 6240, Note_on_c, 0, 63, 110
2, 6240, Note_on_c, 0, 66, 110
2, 6240, Note_on_c, 0, 68, 110

2, 6336, Note_on_c, 0, 64, 110
2, 6336, Note_on_c, 0, 68, 110
2, 6336, Note_on_c, 0, 70, 110

2, 6432, Note_on_c, 0, 66, 110
2, 6432, Note_on_c, 0, 70, 110
2, 6432, Note_on_c, 0, 73, 110

2, 6528, Note_on_c, 0, 68, 110
2, 6528, Note_on_c, 0, 71, 110
2, 6528, Note_on_c, 0, 75, 110

2, 6624, Note_on_c, 0, 64, 110
2, 6624, Note_on_c, 0, 68, 110
2, 6624, Note_on_c, 0, 70, 110

2, 6672, Note_on_c, 0, 64, 110
2, 6672, Note_on_c, 0, 68, 110
2, 6672, Note_on_c, 0, 70, 110

2, 6792, Note_on_c, 0, 63, 110
2, 6792, Note_on_c, 0, 66, 110
2, 6792, Note_on_c, 0, 70, 110

2, 6840, Note_on_c, 0, 63, 110
2, 6840, Note_on_c, 0, 66, 110
2, 6840, Note_on_c, 0, 70, 110

2, 6960, Note_on_c, 0, 63, 110
2, 6960, Note_on_c, 0, 66, 110
2, 6960, Note_on_c, 0, 68, 110

2, 7008, Note_on_c, 0, 63, 110
2, 7008, Note_on_c, 0, 66, 110
2, 7008, Note_on_c, 0, 68, 110

2, 7128, Note_on_c, 0, 61, 110
2, 7128, Note_on_c, 0, 64, 110
2, 7128, Note_on_c, 0, 68, 110

