0, 0, Header, 1, 3, 192
1, 0, Start_track
1, 0, Title_t, "Piano Template"
1, 0, Text_t, "By <Name>"
1, 0, Copyright_t, "Copyright © <Year> by <Name>"
1, 0, Copyright_t, "All Rights Reserved"
1, 0, Text_t, "Generated by NoteWorthy Composer"
1, 0, Tempo, 600000
1, 0, Key_signature, 5, "major"
1, 0, End_track
2, 0, Start_track
2, 0, MIDI_port, 0
2, 0, Title_t, "auto-beam"
2, 0, Program_c, 0, 0
2, 0, Control_c, 0, 7, 127
2, 0, Control_c, 0, 10, 64
2, 0, Program_c, 0, 0
2, 0, Control_c, 0, 7, 127
2, 0, Control_c, 0, 10, 64
2, 0, Program_c, 0, 51
2, 0, Note_on_c, 0, 66, 110
2, 0, Note_on_c, 0, 69, 110
2, 160, Note_on_c, 0, 66, 0
2, 160, Note_on_c, 0, 69, 0
2, 192, Note_on_c, 0, 64, 110
2, 192, Note_on_c, 0, 68, 110
2, 352, Note_on_c, 0, 64, 0
2, 352, Note_on_c, 0, 68, 0
2, 384, Note_on_c, 0, 66, 110
2, 384, Note_on_c, 0, 69, 110
2, 544, Note_on_c, 0, 66, 0
2, 544, Note_on_c, 0, 69, 0
2, 576, Note_on_c, 0, 63, 110
2, 576, Note_on_c, 0, 66, 110
2, 736, Note_on_c, 0, 63, 0
2, 736, Note_on_c, 0, 66, 0
2, 768, Note_on_c, 0, 68, 110
2, 768, Note_on_c, 0, 71, 110
2, 928, Note_on_c, 0, 68, 0
2, 928, Note_on_c, 0, 71, 0
2, 960, Note_on_c, 0, 66, 110
2, 960, Note_on_c, 0, 70, 110
2, 1120, Note_on_c, 0, 66, 0
2, 1120, Note_on_c, 0, 70, 0
2, 1152, Note_on_c, 0, 64, 110
2, 1152, Note_on_c, 0, 68, 110
2, 1312, Note_on_c, 0, 64, 0
2, 1312, Note_on_c, 0, 68, 0
2, 1344, Note_on_c, 0, 63, 110
2, 1344, Note_on_c, 0, 66, 110
2, 1504, Note_on_c, 0, 63, 0
2, 1504, Note_on_c, 0, 66, 0
2, 1536, Note_on_c, 0, 66, 110
2, 1536, Note_on_c, 0, 70, 110
2, 1696, Note_on_c, 0, 66, 0
2, 1696, Note_on_c, 0, 70, 0
2, 1728, Note_on_c, 0, 64, 110
2, 1728, Note_on_c, 0, 68, 110
2, 1888, Note_on_c, 0, 64, 0
2, 1888, Note_on_c, 0, 68, 0
2, 1920, Note_on_c, 0, 66, 110
2, 1920, Note_on_c, 0, 70, 110
2, 2080, Note_on_c, 0, 66, 0
2, 2080, Note_on_c, 0, 70, 0
2, 2112, Note_on_c, 0, 63, 110
2, 2112, Note_on_c, 0, 66, 110
2, 2272, Note_on_c, 0, 63, 0
2, 2272, Note_on_c, 0, 66, 0
2, 2304, Note_on_c, 0, 68, 110
2, 2304, Note_on_c, 0, 71, 110
2, 2464, Note_on_c, 0, 68, 0
2, 2464, Note_on_c, 0, 71, 0
2, 2496, Note_on_c, 0, 66, 110
2, 2496, Note_on_c, 0, 73, 110
2, 2656, Note_on_c, 0, 66, 0
2, 2656, Note_on_c, 0, 73, 0
2, 2688, Note_on_c, 0, 66, 110
2, 2688, Note_on_c, 0, 75, 110
2, 2848, Note_on_c, 0, 66, 0
2, 2848, Note_on_c, 0, 75, 0
2, 2880, Note_on_c, 0, 66, 110
2, 2880, Note_on_c, 0, 76, 110
2, 3040, Note_on_c, 0, 66, 0
2, 3040, Note_on_c, 0, 76, 0
2, 3072, Note_on_c, 0, 68, 110
2, 3072, Note_on_c, 0, 71, 110
2, 3166, Note_on_c, 0, 68, 0
2, 3166, Note_on_c, 0, 71, 0
2, 3168, Note_on_c, 0, 70, 110
2, 3262, Note_on_c, 0, 70, 0
2, 3264, Note_on_c, 0, 71, 110
2, 3358, Note_on_c, 0, 71, 0
2, 3360, Note_on_c, 0, 70, 110
2, 3454, Note_on_c, 0, 70, 0
2, 3456, Note_on_c, 0, 68, 110
2, 3456, Note_on_c, 0, 71, 110
2, 3550, Note_on_c, 0, 68, 0
2, 3550, Note_on_c, 0, 71, 0
2, 3552, Note_on_c, 0, 70, 110
2, 3646, Note_on_c, 0, 70, 0
2, 3648, Note_on_c, 0, 64, 110
2, 3648, Note_on_c, 0, 68, 110
2, 3808, Note_on_c, 0, 64, 0
2, 3808, Note_on_c, 0, 68, 0
2, 3840, Note_on_c, 0, 68, 110
2, 3840, Note_on_c, 0, 71, 110
2, 3934, Note_on_c, 0, 68, 0
2, 3934, Note_on_c, 0, 71, 0
2, 3936, Note_on_c, 0, 70, 110
2, 4030, Note_on_c, 0, 70, 0
2, 4032, Note_on_c, 0, 71, 110
2, 4126, Note_on_c, 0, 71, 0
2, 4128, Note_on_c, 0, 68, 110
2, 4222, Note_on_c, 0, 68, 0
2, 4224, Note_on_c, 0, 68, 110
2, 4224, Note_on_c, 0, 71, 110
2, 4318, Note_on_c, 0, 68, 0
2, 4318, Note_on_c, 0, 71, 0
2, 4320, Note_on_c, 0, 70, 110
2, 4414, Note_on_c, 0, 70, 0
2, 4416, Note_on_c, 0, 61, 110
2, 4416, Note_on_c, 0, 64, 110
2, 4576, Note_on_c, 0, 61, 0
2, 4576, Note_on_c, 0, 64, 0
2, 4608, Note_on_c, 0, 68, 110
2, 4768, Note_on_c, 0, 68, 0
2, 4800, Note_on_c, 0, 68, 110
2, 4800, Note_on_c, 0, 71, 110
2, 4960, Note_on_c, 0, 68, 0
2, 4960, Note_on_c, 0, 71, 0
2, 4992, Note_on_c, 0, 68, 110
2, 4992, Note_on_c, 0, 71, 110
2, 5152, Note_on_c, 0, 68, 0
2, 5152, Note_on_c, 0, 71, 0
2, 5184, Note_on_c, 0, 66, 110
2, 5184, Note_on_c, 0, 70, 110
2, 5344, Note_on_c, 0, 66, 0
2, 5344, Note_on_c, 0, 70, 0
2, 5376, Note_on_c, 0, 68, 110
2, 5376, Note_on_c, 0, 71, 110
2, 6096, Note_on_c, 0, 68, 0
2, 6096, Note_on_c, 0, 71, 0
2, 6096, End_track
3, 0, Start_track
3, 0, MIDI_port, 0
3, 0, Title_t, "Staff-1"
3, 0, Control_c, 1, 7, 127
3, 0, Control_c, 1, 10, 64
3, 0, Control_c, 1, 7, 127
3, 0, Control_c, 1, 10, 64
3, 0, Program_c, 1, 51
3, 0, Note_on_c, 1, 46, 110
3, 0, Note_on_c, 1, 49, 110
3, 160, Note_on_c, 1, 46, 0
3, 160, Note_on_c, 1, 49, 0
3, 192, Note_on_c, 1, 44, 110
3, 192, Note_on_c, 1, 47, 110
3, 352, Note_on_c, 1, 44, 0
3, 352, Note_on_c, 1, 47, 0
3, 384, Note_on_c, 1, 46, 110
3, 384, Note_on_c, 1, 49, 110
3, 544, Note_on_c, 1, 46, 0
3, 544, Note_on_c, 1, 49, 0
3, 576, Note_on_c, 1, 42, 110
3, 576, Note_on_c, 1, 46, 110
3, 736, Note_on_c, 1, 42, 0
3, 736, Note_on_c, 1, 46, 0
3, 768, Note_on_c, 1, 47, 110
3, 768, Note_on_c, 1, 51, 110
3, 928, Note_on_c, 1, 47, 0
3, 928, Note_on_c, 1, 51, 0
3, 960, Note_on_c, 1, 46, 110
3, 960, Note_on_c, 1, 49, 110
3, 1120, Note_on_c, 1, 46, 0
3, 1120, Note_on_c, 1, 49, 0
3, 1152, Note_on_c, 1, 44, 110
3, 1152, Note_on_c, 1, 47, 110
3, 1312, Note_on_c, 1, 44, 0
3, 1312, Note_on_c, 1, 47, 0
3, 1344, Note_on_c, 1, 42, 110
3, 1344, Note_on_c, 1, 46, 110
3, 1504, Note_on_c, 1, 42, 0
3, 1504, Note_on_c, 1, 46, 0
3, 1536, Note_on_c, 1, 46, 110
3, 1536, Note_on_c, 1, 49, 110
3, 1696, Note_on_c, 1, 46, 0
3, 1696, Note_on_c, 1, 49, 0
3, 1728, Note_on_c, 1, 44, 110
3, 1728, Note_on_c, 1, 47, 110
3, 1888, Note_on_c, 1, 44, 0
3, 1888, Note_on_c, 1, 47, 0
3, 1920, Note_on_c, 1, 46, 110
3, 1920, Note_on_c, 1, 49, 110
3, 2080, Note_on_c, 1, 46, 0
3, 2080, Note_on_c, 1, 49, 0
3, 2112, Note_on_c, 1, 42, 110
3, 2112, Note_on_c, 1, 46, 110
3, 2272, Note_on_c, 1, 42, 0
3, 2272, Note_on_c, 1, 46, 0
3, 2304, Note_on_c, 1, 47, 110
3, 2304, Note_on_c, 1, 51, 110
3, 2464, Note_on_c, 1, 47, 0
3, 2464, Note_on_c, 1, 51, 0
3, 2496, Note_on_c, 1, 46, 110
3, 2496, Note_on_c, 1, 49, 110
3, 2656, Note_on_c, 1, 46, 0
3, 2656, Note_on_c, 1, 49, 0
3, 2688, Note_on_c, 1, 44, 110
3, 2688, Note_on_c, 1, 47, 110
3, 2848, Note_on_c, 1, 44, 0
3, 2848, Note_on_c, 1, 47, 0
3, 2880, Note_on_c, 1, 52, 110
3, 3040, Note_on_c, 1, 52, 0
3, 3072, Note_on_c, 1, 49, 110
3, 3166, Note_on_c, 1, 49, 0
3, 3168, Note_on_c, 1, 47, 110
3, 3262, Note_on_c, 1, 47, 0
3, 3264, Note_on_c, 1, 49, 110
3, 3358, Note_on_c, 1, 49, 0
3, 3360, Note_on_c, 1, 47, 110
3, 3454, Note_on_c, 1, 47, 0
3, 3456, Note_on_c, 1, 49, 110
3, 3550, Note_on_c, 1, 49, 0
3, 3552, Note_on_c, 1, 46, 110
3, 3646, Note_on_c, 1, 46, 0
3, 3648, Note_on_c, 1, 49, 110
3, 3742, Note_on_c, 1, 49, 0
3, 3744, Note_on_c, 1, 46, 110
3, 3838, Note_on_c, 1, 46, 0
3, 3840, Note_on_c, 1, 52, 110
3, 3934, Note_on_c, 1, 52, 0
3, 3936, Note_on_c, 1, 51, 110
3, 4030, Note_on_c, 1, 51, 0
3, 4032, Note_on_c, 1, 52, 110
3, 4126, Note_on_c, 1, 52, 0
3, 4128, Note_on_c, 1, 51, 110
3, 4222, Note_on_c, 1, 51, 0
3, 4224, Note_on_c, 1, 49, 110
3, 4318, Note_on_c, 1, 49, 0
3, 4320, Note_on_c, 1, 47, 110
3, 4414, Note_on_c, 1, 47, 0
3, 4416, Note_on_c, 1, 49, 110
3, 4510, Note_on_c, 1, 49, 0
3, 4512, Note_on_c, 1, 46, 110
3, 4606, Note_on_c, 1, 46, 0
3, 4608, Note_on_c, 1, 47, 110
3, 4768, Note_on_c, 1, 47, 0
3, 4800, Note_on_c, 1, 51, 110
3, 4960, Note_on_c, 1, 51, 0
3, 4992, Note_on_c, 1, 47, 110
3, 4992, Note_on_c, 1, 51, 110
3, 5152, Note_on_c, 1, 47, 0
3, 5152, Note_on_c, 1, 51, 0
3, 5184, Note_on_c, 1, 51, 110
3, 5344, Note_on_c, 1, 51, 0
3, 5376, Note_on_c, 1, 47, 110
3, 5376, Note_on_c, 1, 51, 110
3, 6096, Note_on_c, 1, 47, 0
3, 6096, Note_on_c, 1, 51, 0
3, 6096, End_track
0, 0, End_of_file
