0, 0, Header, 1, 2, 192
1, 0, Start_track
1, 0, Title_t, "Piano Template"
1, 0, Text_t, "By <Name>"
1, 0, Copyright_t, "Copyright © <Year> by <Name>"
1, 0, Copyright_t, "All Rights Reserved"
1, 0, Text_t, "Generated by NoteWorthy Composer"
1, 0, Tempo, 666666
1, 0, End_track
2, 0, Start_track
2, 0, MIDI_port, 0
2, 0, Title_t, "auto-beam"
2, 0, Program_c, 0, 0
2, 0, Control_c, 0, 7, 127
2, 0, Control_c, 0, 10, 64
2, 0, Program_c, 0, 0
2, 0, Control_c, 0, 7, 127
2, 0, Control_c, 0, 10, 64
2, 0, Program_c, 0, 95
2, 0, Note_on_c, 0, 61, 110
2, 0, Note_on_c, 0, 64, 110
2, 0, Note_on_c, 0, 67, 110
2, 46, Note_on_c, 0, 61, 0
2, 46, Note_on_c, 0, 64, 0
2, 46, Note_on_c, 0, 67, 0
2, 96, Note_on_c, 0, 62, 110
2, 96, Note_on_c, 0, 65, 110
2, 96, Note_on_c, 0, 68, 110
2, 142, Note_on_c, 0, 62, 0
2, 142, Note_on_c, 0, 65, 0
2, 142, Note_on_c, 0, 68, 0
2, 192, Note_on_c, 0, 63, 110
2, 192, Note_on_c, 0, 66, 110
2, 192, Note_on_c, 0, 69, 110
2, 238, Note_on_c, 0, 63, 0
2, 238, Note_on_c, 0, 66, 0
2, 238, Note_on_c, 0, 69, 0
2, 288, Note_on_c, 0, 64, 110
2, 288, Note_on_c, 0, 68, 110
2, 288, Note_on_c, 0, 70, 110
2, 334, Note_on_c, 0, 64, 0
2, 334, Note_on_c, 0, 68, 0
2, 334, Note_on_c, 0, 70, 0
2, 384, Note_on_c, 0, 63, 110
2, 384, Note_on_c, 0, 66, 110
2, 430, Note_on_c, 0, 63, 0
2, 430, Note_on_c, 0, 66, 0
2, 432, Note_on_c, 0, 63, 110
2, 432, Note_on_c, 0, 66, 110
2, 478, Note_on_c, 0, 63, 0
2, 478, Note_on_c, 0, 66, 0
2, 480, Note_on_c, 0, 61, 110
2, 480, Note_on_c, 0, 64, 110
2, 526, Note_on_c, 0, 61, 0
2, 526, Note_on_c, 0, 64, 0
2, 528, Note_on_c, 0, 61, 110
2, 528, Note_on_c, 0, 64, 110
2, 574, Note_on_c, 0, 61, 0
2, 574, Note_on_c, 0, 64, 0
2, 576, Note_on_c, 0, 63, 110
2, 576, Note_on_c, 0, 66, 110
2, 622, Note_on_c, 0, 63, 0
2, 622, Note_on_c, 0, 66, 0
2, 624, Note_on_c, 0, 64, 110
2, 624, Note_on_c, 0, 68, 110
2, 670, Note_on_c, 0, 64, 0
2, 670, Note_on_c, 0, 68, 0
2, 672, Note_on_c, 0, 63, 110
2, 672, Note_on_c, 0, 66, 110
2, 718, Note_on_c, 0, 63, 0
2, 718, Note_on_c, 0, 66, 0
2, 720, Note_on_c, 0, 61, 110
2, 720, Note_on_c, 0, 64, 110
2, 814, Note_on_c, 0, 61, 0
2, 814, Note_on_c, 0, 64, 0
2, 912, Note_on_c, 0, 63, 110
2, 912, Note_on_c, 0, 66, 110
2, 912, Note_on_c, 0, 70, 110
2, 958, Note_on_c, 0, 63, 0
2, 958, Note_on_c, 0, 66, 0
2, 958, Note_on_c, 0, 70, 0
2, 1008, Note_on_c, 0, 64, 110
2, 1008, Note_on_c, 0, 68, 110
2, 1008, Note_on_c, 0, 70, 110
2, 1054, Note_on_c, 0, 64, 0
2, 1054, Note_on_c, 0, 68, 0
2, 1054, Note_on_c, 0, 70, 0
2, 1104, Note_on_c, 0, 66, 110
2, 1104, Note_on_c, 0, 68, 110
2, 1104, Note_on_c, 0, 71, 110
2, 1150, Note_on_c, 0, 66, 0
2, 1150, Note_on_c, 0, 68, 0
2, 1150, Note_on_c, 0, 71, 0
2, 1200, Note_on_c, 0, 66, 110
2, 1200, Note_on_c, 0, 70, 110
2, 1200, Note_on_c, 0, 73, 110
2, 1270, Note_on_c, 0, 66, 0
2, 1270, Note_on_c, 0, 70, 0
2, 1270, Note_on_c, 0, 73, 0
2, 1320, Note_on_c, 0, 66, 110
2, 1320, Note_on_c, 0, 68, 110
2, 1366, Note_on_c, 0, 66, 0
2, 1366, Note_on_c, 0, 68, 0
2, 1368, Note_on_c, 0, 64, 110
2, 1368, Note_on_c, 0, 68, 110
2, 1414, Note_on_c, 0, 64, 0
2, 1414, Note_on_c, 0, 68, 0
2, 1416, Note_on_c, 0, 63, 110
2, 1416, Note_on_c, 0, 66, 110
2, 1462, Note_on_c, 0, 63, 0
2, 1462, Note_on_c, 0, 66, 0
2, 1464, Note_on_c, 0, 63, 110
2, 1464, Note_on_c, 0, 66, 110
2, 1510, Note_on_c, 0, 63, 0
2, 1510, Note_on_c, 0, 66, 0
2, 1512, Note_on_c, 0, 64, 110
2, 1512, Note_on_c, 0, 68, 110
2, 1558, Note_on_c, 0, 64, 0
2, 1558, Note_on_c, 0, 68, 0
2, 1560, Note_on_c, 0, 66, 110
2, 1560, Note_on_c, 0, 70, 110
2, 1606, Note_on_c, 0, 66, 0
2, 1606, Note_on_c, 0, 70, 0
2, 1608, Note_on_c, 0, 63, 110
2, 1608, Note_on_c, 0, 66, 110
2, 1702, Note_on_c, 0, 63, 0
2, 1702, Note_on_c, 0, 66, 0
2, 1800, Note_on_c, 0, 64, 110
2, 1800, Note_on_c, 0, 68, 110
2, 1894, Note_on_c, 0, 64, 0
2, 1894, Note_on_c, 0, 68, 0
2, 1896, Note_on_c, 0, 63, 110
2, 1896, Note_on_c, 0, 66, 110
2, 1942, Note_on_c, 0, 63, 0
2, 1942, Note_on_c, 0, 66, 0
2, 1944, Note_on_c, 0, 63, 110
2, 1944, Note_on_c, 0, 66, 110
2, 1990, Note_on_c, 0, 63, 0
2, 1990, Note_on_c, 0, 66, 0
2, 1992, Note_on_c, 0, 61, 110
2, 1992, Note_on_c, 0, 64, 110
2, 2038, Note_on_c, 0, 61, 0
2, 2038, Note_on_c, 0, 64, 0
2, 2040, Note_on_c, 0, 61, 110
2, 2040, Note_on_c, 0, 64, 110
2, 2086, Note_on_c, 0, 61, 0
2, 2086, Note_on_c, 0, 64, 0
2, 2088, Note_on_c, 0, 63, 110
2, 2088, Note_on_c, 0, 66, 110
2, 2134, Note_on_c, 0, 63, 0
2, 2134, Note_on_c, 0, 66, 0
2, 2136, Note_on_c, 0, 64, 110
2, 2136, Note_on_c, 0, 68, 110
2, 2182, Note_on_c, 0, 64, 0
2, 2182, Note_on_c, 0, 68, 0
2, 2184, Note_on_c, 0, 63, 110
2, 2184, Note_on_c, 0, 66, 110
2, 2230, Note_on_c, 0, 63, 0
2, 2230, Note_on_c, 0, 66, 0
2, 2232, Note_on_c, 0, 61, 110
2, 2232, Note_on_c, 0, 64, 110
2, 2326, Note_on_c, 0, 61, 0
2, 2326, Note_on_c, 0, 64, 0
2, 2424, Note_on_c, 0, 63, 110
2, 2424, Note_on_c, 0, 66, 110
2, 2424, Note_on_c, 0, 70, 110
2, 2470, Note_on_c, 0, 63, 0
2, 2470, Note_on_c, 0, 66, 0
2, 2470, Note_on_c, 0, 70, 0
2, 2520, Note_on_c, 0, 64, 110
2, 2520, Note_on_c, 0, 68, 110
2, 2520, Note_on_c, 0, 70, 110
2, 2566, Note_on_c, 0, 64, 0
2, 2566, Note_on_c, 0, 68, 0
2, 2566, Note_on_c, 0, 70, 0
2, 2616, Note_on_c, 0, 66, 110
2, 2616, Note_on_c, 0, 68, 110
2, 2616, Note_on_c, 0, 71, 110
2, 2662, Note_on_c, 0, 66, 0
2, 2662, Note_on_c, 0, 68, 0
2, 2662, Note_on_c, 0, 71, 0
2, 2712, Note_on_c, 0, 66, 110
2, 2712, Note_on_c, 0, 70, 110
2, 2712, Note_on_c, 0, 73, 110
2, 2782, Note_on_c, 0, 66, 0
2, 2782, Note_on_c, 0, 70, 0
2, 2782, Note_on_c, 0, 73, 0
2, 2784, Note_on_c, 0, 66, 110
2, 2784, Note_on_c, 0, 68, 110
2, 2830, Note_on_c, 0, 66, 0
2, 2830, Note_on_c, 0, 68, 0
2, 2832, Note_on_c, 0, 64, 110
2, 2832, Note_on_c, 0, 68, 110
2, 2878, Note_on_c, 0, 64, 0
2, 2878, Note_on_c, 0, 68, 0
2, 2880, Note_on_c, 0, 63, 110
2, 2880, Note_on_c, 0, 66, 110
2, 2926, Note_on_c, 0, 63, 0
2, 2926, Note_on_c, 0, 66, 0
2, 2928, Note_on_c, 0, 63, 110
2, 2928, Note_on_c, 0, 66, 110
2, 2974, Note_on_c, 0, 63, 0
2, 2974, Note_on_c, 0, 66, 0
2, 2976, Note_on_c, 0, 64, 110
2, 2976, Note_on_c, 0, 68, 110
2, 3022, Note_on_c, 0, 64, 0
2, 3022, Note_on_c, 0, 68, 0
2, 3024, Note_on_c, 0, 66, 110
2, 3024, Note_on_c, 0, 70, 110
2, 3070, Note_on_c, 0, 66, 0
2, 3070, Note_on_c, 0, 70, 0
2, 3072, Note_on_c, 0, 63, 110
2, 3072, Note_on_c, 0, 66, 110
2, 3166, Note_on_c, 0, 63, 0
2, 3166, Note_on_c, 0, 66, 0
2, 3360, Note_on_c, 0, 64, 110
2, 3360, Note_on_c, 0, 68, 110
2, 3360, Note_on_c, 0, 70, 110
2, 3406, Note_on_c, 0, 64, 0
2, 3406, Note_on_c, 0, 68, 0
2, 3406, Note_on_c, 0, 70, 0
2, 3456, Note_on_c, 0, 63, 110
2, 3456, Note_on_c, 0, 66, 110
2, 3456, Note_on_c, 0, 70, 110
2, 3502, Note_on_c, 0, 63, 0
2, 3502, Note_on_c, 0, 66, 0
2, 3502, Note_on_c, 0, 70, 0
2, 3552, Note_on_c, 0, 63, 110
2, 3552, Note_on_c, 0, 66, 110
2, 3552, Note_on_c, 0, 68, 110
2, 3598, Note_on_c, 0, 63, 0
2, 3598, Note_on_c, 0, 66, 0
2, 3598, Note_on_c, 0, 68, 0
2, 3648, Note_on_c, 0, 61, 110
2, 3648, Note_on_c, 0, 64, 110
2, 3648, Note_on_c, 0, 68, 110
2, 3694, Note_on_c, 0, 61, 0
2, 3694, Note_on_c, 0, 64, 0
2, 3694, Note_on_c, 0, 68, 0
2, 3744, Note_on_c, 0, 61, 110
2, 3744, Note_on_c, 0, 64, 110
2, 3790, Note_on_c, 0, 61, 0
2, 3790, Note_on_c, 0, 64, 0
2, 3792, Note_on_c, 0, 63, 110
2, 3792, Note_on_c, 0, 66, 110
2, 3838, Note_on_c, 0, 63, 0
2, 3838, Note_on_c, 0, 66, 0
2, 3840, Note_on_c, 0, 64, 110
2, 3840, Note_on_c, 0, 68, 110
2, 3886, Note_on_c, 0, 64, 0
2, 3886, Note_on_c, 0, 68, 0
2, 3888, Note_on_c, 0, 63, 110
2, 3888, Note_on_c, 0, 66, 110
2, 3934, Note_on_c, 0, 63, 0
2, 3934, Note_on_c, 0, 66, 0
2, 3936, Note_on_c, 0, 61, 110
2, 3936, Note_on_c, 0, 64, 110
2, 3982, Note_on_c, 0, 61, 0
2, 3982, Note_on_c, 0, 64, 0
2, 3984, Note_on_c, 0, 63, 110
2, 3984, Note_on_c, 0, 66, 110
2, 4030, Note_on_c, 0, 63, 0
2, 4030, Note_on_c, 0, 66, 0
2, 4032, Note_on_c, 0, 61, 110
2, 4032, Note_on_c, 0, 64, 110
2, 4078, Note_on_c, 0, 61, 0
2, 4078, Note_on_c, 0, 64, 0
2, 4080, Note_on_c, 0, 63, 110
2, 4080, Note_on_c, 0, 66, 110
2, 4174, Note_on_c, 0, 63, 0
2, 4174, Note_on_c, 0, 66, 0
2, 4368, Note_on_c, 0, 66, 110
2, 4368, Note_on_c, 0, 70, 110
2, 4368, Note_on_c, 0, 73, 110
2, 4414, Note_on_c, 0, 66, 0
2, 4414, Note_on_c, 0, 70, 0
2, 4414, Note_on_c, 0, 73, 0
2, 4464, Note_on_c, 0, 66, 110
2, 4464, Note_on_c, 0, 68, 110
2, 4464, Note_on_c, 0, 71, 110
2, 4510, Note_on_c, 0, 66, 0
2, 4510, Note_on_c, 0, 68, 0
2, 4510, Note_on_c, 0, 71, 0
2, 4560, Note_on_c, 0, 64, 110
2, 4560, Note_on_c, 0, 68, 110
2, 4560, Note_on_c, 0, 70, 110
2, 4606, Note_on_c, 0, 64, 0
2, 4606, Note_on_c, 0, 68, 0
2, 4606, Note_on_c, 0, 70, 0
2, 4656, Note_on_c, 0, 63, 110
2, 4656, Note_on_c, 0, 66, 110
2, 4656, Note_on_c, 0, 70, 110
2, 4702, Note_on_c, 0, 63, 0
2, 4702, Note_on_c, 0, 66, 0
2, 4702, Note_on_c, 0, 70, 0
2, 4752, Note_on_c, 0, 63, 110
2, 4752, Note_on_c, 0, 66, 110
2, 4798, Note_on_c, 0, 63, 0
2, 4798, Note_on_c, 0, 66, 0
2, 4800, Note_on_c, 0, 64, 110
2, 4800, Note_on_c, 0, 68, 110
2, 4846, Note_on_c, 0, 64, 0
2, 4846, Note_on_c, 0, 68, 0
2, 4848, Note_on_c, 0, 66, 110
2, 4848, Note_on_c, 0, 68, 110
2, 4894, Note_on_c, 0, 66, 0
2, 4894, Note_on_c, 0, 68, 0
2, 4896, Note_on_c, 0, 64, 110
2, 4896, Note_on_c, 0, 68, 110
2, 4942, Note_on_c, 0, 64, 0
2, 4942, Note_on_c, 0, 68, 0
2, 4944, Note_on_c, 0, 63, 110
2, 4944, Note_on_c, 0, 66, 110
2, 4990, Note_on_c, 0, 63, 0
2, 4990, Note_on_c, 0, 66, 0
2, 4992, Note_on_c, 0, 63, 110
2, 4992, Note_on_c, 0, 66, 110
2, 5038, Note_on_c, 0, 63, 0
2, 5038, Note_on_c, 0, 66, 0
2, 5040, Note_on_c, 0, 64, 110
2, 5040, Note_on_c, 0, 68, 110
2, 5086, Note_on_c, 0, 64, 0
2, 5086, Note_on_c, 0, 68, 0
2, 5088, Note_on_c, 0, 63, 110
2, 5088, Note_on_c, 0, 66, 110
2, 5182, Note_on_c, 0, 63, 0
2, 5182, Note_on_c, 0, 66, 0
2, 5280, Note_on_c, 0, 61, 110
2, 5280, Note_on_c, 0, 64, 110
2, 5326, Note_on_c, 0, 61, 0
2, 5326, Note_on_c, 0, 64, 0
2, 5328, Note_on_c, 0, 63, 110
2, 5328, Note_on_c, 0, 66, 110
2, 5374, Note_on_c, 0, 63, 0
2, 5374, Note_on_c, 0, 66, 0
2, 5376, Note_on_c, 0, 64, 110
2, 5376, Note_on_c, 0, 68, 110
2, 5422, Note_on_c, 0, 64, 0
2, 5422, Note_on_c, 0, 68, 0
2, 5424, Note_on_c, 0, 63, 110
2, 5424, Note_on_c, 0, 66, 110
2, 5470, Note_on_c, 0, 63, 0
2, 5470, Note_on_c, 0, 66, 0
2, 5472, Note_on_c, 0, 64, 110
2, 5472, Note_on_c, 0, 68, 110
2, 5518, Note_on_c, 0, 64, 0
2, 5518, Note_on_c, 0, 68, 0
2, 5520, Note_on_c, 0, 63, 110
2, 5520, Note_on_c, 0, 66, 110
2, 5566, Note_on_c, 0, 63, 0
2, 5566, Note_on_c, 0, 66, 0
2, 5568, Note_on_c, 0, 61, 110
2, 5568, Note_on_c, 0, 64, 110
2, 5614, Note_on_c, 0, 61, 0
2, 5614, Note_on_c, 0, 64, 0
2, 5616, Note_on_c, 0, 63, 110
2, 5616, Note_on_c, 0, 66, 110
2, 5662, Note_on_c, 0, 63, 0
2, 5662, Note_on_c, 0, 66, 0
2, 5664, Note_on_c, 0, 61, 110
2, 5664, Note_on_c, 0, 64, 110
2, 5710, Note_on_c, 0, 61, 0
2, 5710, Note_on_c, 0, 64, 0
2, 5712, Note_on_c, 0, 63, 110
2, 5712, Note_on_c, 0, 66, 110
2, 5758, Note_on_c, 0, 63, 0
2, 5758, Note_on_c, 0, 66, 0
2, 5760, Note_on_c, 0, 64, 110
2, 5760, Note_on_c, 0, 68, 110
2, 5806, Note_on_c, 0, 64, 0
2, 5806, Note_on_c, 0, 68, 0
2, 5808, Note_on_c, 0, 63, 110
2, 5808, Note_on_c, 0, 66, 110
2, 5854, Note_on_c, 0, 63, 0
2, 5854, Note_on_c, 0, 66, 0
2, 5856, Note_on_c, 0, 58, 110
2, 5856, Note_on_c, 0, 61, 110
2, 5856, Note_on_c, 0, 64, 110
2, 5902, Note_on_c, 0, 58, 0
2, 5902, Note_on_c, 0, 61, 0
2, 5902, Note_on_c, 0, 64, 0
2, 5952, Note_on_c, 0, 61, 110
2, 5952, Note_on_c, 0, 63, 110
2, 5952, Note_on_c, 0, 66, 110
2, 5998, Note_on_c, 0, 61, 0
2, 5998, Note_on_c, 0, 63, 0
2, 5998, Note_on_c, 0, 66, 0
2, 6048, Note_on_c, 0, 63, 110
2, 6048, Note_on_c, 0, 66, 110
2, 6048, Note_on_c, 0, 68, 110
2, 6094, Note_on_c, 0, 63, 0
2, 6094, Note_on_c, 0, 66, 0
2, 6094, Note_on_c, 0, 68, 0
2, 6144, Note_on_c, 0, 64, 110
2, 6144, Note_on_c, 0, 68, 110
2, 6144, Note_on_c, 0, 70, 110
2, 6190, Note_on_c, 0, 64, 0
2, 6190, Note_on_c, 0, 68, 0
2, 6190, Note_on_c, 0, 70, 0
2, 6240, Note_on_c, 0, 63, 110
2, 6240, Note_on_c, 0, 66, 110
2, 6240, Note_on_c, 0, 68, 110
2, 6286, Note_on_c, 0, 63, 0
2, 6286, Note_on_c, 0, 66, 0
2, 6286, Note_on_c, 0, 68, 0
2, 6336, Note_on_c, 0, 64, 110
2, 6336, Note_on_c, 0, 68, 110
2, 6336, Note_on_c, 0, 70, 110
2, 6382, Note_on_c, 0, 64, 0
2, 6382, Note_on_c, 0, 68, 0
2, 6382, Note_on_c, 0, 70, 0
2, 6432, Note_on_c, 0, 66, 110
2, 6432, Note_on_c, 0, 70, 110
2, 6432, Note_on_c, 0, 73, 110
2, 6478, Note_on_c, 0, 66, 0
2, 6478, Note_on_c, 0, 70, 0
2, 6478, Note_on_c, 0, 73, 0
2, 6528, Note_on_c, 0, 68, 110
2, 6528, Note_on_c, 0, 71, 110
2, 6528, Note_on_c, 0, 75, 110
2, 6574, Note_on_c, 0, 68, 0
2, 6574, Note_on_c, 0, 71, 0
2, 6574, Note_on_c, 0, 75, 0
2, 6624, Note_on_c, 0, 64, 110
2, 6624, Note_on_c, 0, 68, 110
2, 6624, Note_on_c, 0, 70, 110
2, 6646, Note_on_c, 0, 64, 0
2, 6646, Note_on_c, 0, 68, 0
2, 6646, Note_on_c, 0, 70, 0
2, 6672, Note_on_c, 0, 64, 110
2, 6672, Note_on_c, 0, 68, 110
2, 6672, Note_on_c, 0, 70, 110
2, 6742, Note_on_c, 0, 64, 0
2, 6742, Note_on_c, 0, 68, 0
2, 6742, Note_on_c, 0, 70, 0
2, 6792, Note_on_c, 0, 63, 110
2, 6792, Note_on_c, 0, 66, 110
2, 6792, Note_on_c, 0, 70, 110
2, 6814, Note_on_c, 0, 63, 0
2, 6814, Note_on_c, 0, 66, 0
2, 6814, Note_on_c, 0, 70, 0
2, 6840, Note_on_c, 0, 63, 110
2, 6840, Note_on_c, 0, 66, 110
2, 6840, Note_on_c, 0, 70, 110
2, 6910, Note_on_c, 0, 63, 0
2, 6910, Note_on_c, 0, 66, 0
2, 6910, Note_on_c, 0, 70, 0
2, 6960, Note_on_c, 0, 63, 110
2, 6960, Note_on_c, 0, 66, 110
2, 6960, Note_on_c, 0, 68, 110
2, 6982, Note_on_c, 0, 63, 0
2, 6982, Note_on_c, 0, 66, 0
2, 6982, Note_on_c, 0, 68, 0
2, 7008, Note_on_c, 0, 63, 110
2, 7008, Note_on_c, 0, 66, 110
2, 7008, Note_on_c, 0, 68, 110
2, 7078, Note_on_c, 0, 63, 0
2, 7078, Note_on_c, 0, 66, 0
2, 7078, Note_on_c, 0, 68, 0
2, 7128, Note_on_c, 0, 61, 110
2, 7128, Note_on_c, 0, 64, 110
2, 7128, Note_on_c, 0, 68, 110
2, 7222, Note_on_c, 0, 61, 0
2, 7222, Note_on_c, 0, 64, 0
2, 7222, Note_on_c, 0, 68, 0
2, 7222, End_track
0, 0, End_of_file
