0, 0, Header, 1, 4, 192
1, 0, Start_track
1, 0, Title_t, "untitled"
1, 0, Copyright_t, "Copyright © 2002 <Name> All Rights Reserved"
1, 0, Text_t, "By <Name>\012"
1, 0, Text_t, "Generated by NoteWorthy Composer\012"
1, 0, Time_signature, 4, 2, 24, 8
1, 0, Key_signature, 0, "major"
1, 0, Tempo, 500000
1, 0, End_track
2, 0, Start_track
2, 0, Title_t, "17"
2, 0, Program_c, 1, 95
2, 0, Control_c, 1, 7, 100
2, 0, Control_c, 1, 10, 64
2, 0, Program_c, 1, 95
2, 0, Note_on_c, 1, 65, 110
2, 0, Note_on_c, 1, 70, 110
2, 160, Note_on_c, 1, 70, 0
2, 160, Note_on_c, 1, 65, 0
2, 192, Note_on_c, 1, 68, 110
2, 192, Note_on_c, 1, 73, 110
2, 352, Note_on_c, 1, 73, 0
2, 352, Note_on_c, 1, 68, 0
2, 384, Note_on_c, 1, 62, 110
2, 384, Note_on_c, 1, 65, 110
2, 384, Note_on_c, 1, 70, 110
2, 544, Note_on_c, 1, 70, 0
2, 544, Note_on_c, 1, 65, 0
2, 544, Note_on_c, 1, 62, 0
2, 576, Note_on_c, 1, 61, 110
2, 576, Note_on_c, 1, 63, 110
2, 576, Note_on_c, 1, 68, 110
2, 670, Note_on_c, 1, 68, 0
2, 670, Note_on_c, 1, 63, 0
2, 670, Note_on_c, 1, 61, 0
2, 672, Note_on_c, 1, 63, 110
2, 672, Note_on_c, 1, 65, 110
2, 672, Note_on_c, 1, 70, 110
2, 766, Note_on_c, 1, 70, 0
2, 766, Note_on_c, 1, 65, 0
2, 766, Note_on_c, 1, 63, 0
2, 768, Note_on_c, 1, 68, 110
2, 768, Note_on_c, 1, 73, 110
2, 928, Note_on_c, 1, 73, 0
2, 928, Note_on_c, 1, 68, 0
2, 960, Note_on_c, 1, 65, 110
2, 960, Note_on_c, 1, 70, 110
2, 1120, Note_on_c, 1, 70, 0
2, 1120, Note_on_c, 1, 65, 0
2, 1344, Note_on_c, 1, 65, 110
2, 1344, Note_on_c, 1, 70, 110
2, 1504, Note_on_c, 1, 70, 0
2, 1504, Note_on_c, 1, 65, 0
2, 1536, Note_on_c, 1, 70, 110
2, 1536, Note_on_c, 1, 75, 110
2, 1630, Note_on_c, 1, 75, 0
2, 1630, Note_on_c, 1, 70, 0
2, 1632, Note_on_c, 1, 68, 110
2, 1632, Note_on_c, 1, 73, 110
2, 1726, Note_on_c, 1, 73, 0
2, 1726, Note_on_c, 1, 68, 0
2, 1728, Note_on_c, 1, 66, 110
2, 1728, Note_on_c, 1, 70, 110
2, 1728, Note_on_c, 1, 75, 110
2, 1888, Note_on_c, 1, 75, 0
2, 1888, Note_on_c, 1, 70, 0
2, 1888, Note_on_c, 1, 66, 0
2, 1920, Note_on_c, 1, 71, 110
2, 1920, Note_on_c, 1, 76, 110
2, 2014, Note_on_c, 1, 76, 0
2, 2014, Note_on_c, 1, 71, 0
2, 2016, Note_on_c, 1, 70, 110
2, 2016, Note_on_c, 1, 75, 110
2, 2110, Note_on_c, 1, 75, 0
2, 2110, Note_on_c, 1, 70, 0
2, 2112, Note_on_c, 1, 71, 110
2, 2112, Note_on_c, 1, 76, 110
2, 2206, Note_on_c, 1, 76, 0
2, 2206, Note_on_c, 1, 71, 0
2, 2208, Note_on_c, 1, 66, 110
2, 2208, Note_on_c, 1, 70, 110
2, 2208, Note_on_c, 1, 75, 110
2, 2398, Note_on_c, 1, 75, 0
2, 2398, Note_on_c, 1, 70, 0
2, 2398, Note_on_c, 1, 66, 0
2, 2400, Note_on_c, 1, 68, 110
2, 2400, Note_on_c, 1, 73, 110
2, 2494, Note_on_c, 1, 73, 0
2, 2494, Note_on_c, 1, 68, 0
2, 2496, Note_on_c, 1, 70, 110
2, 2496, Note_on_c, 1, 75, 110
2, 2590, Note_on_c, 1, 75, 0
2, 2590, Note_on_c, 1, 70, 0
2, 2592, Note_on_c, 1, 66, 110
2, 2592, Note_on_c, 1, 70, 110
2, 2752, Note_on_c, 1, 70, 0
2, 2752, Note_on_c, 1, 66, 0
2, 2976, Note_on_c, 1, 66, 110
2, 2976, Note_on_c, 1, 70, 110
2, 3166, Note_on_c, 1, 70, 0
2, 3166, Note_on_c, 1, 66, 0
2, 3168, Note_on_c, 1, 68, 110
2, 3168, Note_on_c, 1, 73, 110
2, 3328, Note_on_c, 1, 73, 0
2, 3328, Note_on_c, 1, 68, 0
2, 3360, Note_on_c, 1, 63, 110
2, 3360, Note_on_c, 1, 66, 110
2, 3360, Note_on_c, 1, 70, 110
2, 3520, Note_on_c, 1, 70, 0
2, 3520, Note_on_c, 1, 66, 0
2, 3520, Note_on_c, 1, 63, 0
2, 3552, Note_on_c, 1, 61, 110
2, 3552, Note_on_c, 1, 63, 110
2, 3552, Note_on_c, 1, 68, 110
2, 3646, Note_on_c, 1, 68, 0
2, 3646, Note_on_c, 1, 63, 0
2, 3646, Note_on_c, 1, 61, 0
2, 3648, Note_on_c, 1, 63, 110
2, 3648, Note_on_c, 1, 66, 110
2, 3648, Note_on_c, 1, 70, 110
2, 3742, Note_on_c, 1, 70, 0
2, 3742, Note_on_c, 1, 66, 0
2, 3742, Note_on_c, 1, 63, 0
2, 3744, Note_on_c, 1, 68, 110
2, 3744, Note_on_c, 1, 73, 110
2, 3934, Note_on_c, 1, 73, 0
2, 3934, Note_on_c, 1, 68, 0
2, 3936, Note_on_c, 1, 66, 110
2, 3936, Note_on_c, 1, 70, 110
2, 4096, Note_on_c, 1, 70, 0
2, 4096, Note_on_c, 1, 66, 0
2, 4320, Note_on_c, 1, 66, 110
2, 4320, Note_on_c, 1, 70, 110
2, 4480, Note_on_c, 1, 70, 0
2, 4480, Note_on_c, 1, 66, 0
2, 4512, Note_on_c, 1, 70, 110
2, 4512, Note_on_c, 1, 75, 110
2, 4606, Note_on_c, 1, 75, 0
2, 4606, Note_on_c, 1, 70, 0
2, 4608, Note_on_c, 1, 68, 110
2, 4608, Note_on_c, 1, 73, 110
2, 4702, Note_on_c, 1, 73, 0
2, 4702, Note_on_c, 1, 68, 0
2, 4704, Note_on_c, 1, 66, 110
2, 4704, Note_on_c, 1, 70, 110
2, 4704, Note_on_c, 1, 75, 110
2, 4864, Note_on_c, 1, 75, 0
2, 4864, Note_on_c, 1, 70, 0
2, 4864, Note_on_c, 1, 66, 0
2, 4896, Note_on_c, 1, 71, 110
2, 4896, Note_on_c, 1, 76, 110
2, 4990, Note_on_c, 1, 76, 0
2, 4990, Note_on_c, 1, 71, 0
2, 4992, Note_on_c, 1, 70, 110
2, 4992, Note_on_c, 1, 75, 110
2, 5086, Note_on_c, 1, 75, 0
2, 5086, Note_on_c, 1, 70, 0
2, 5088, Note_on_c, 1, 71, 110
2, 5088, Note_on_c, 1, 76, 110
2, 5182, Note_on_c, 1, 76, 0
2, 5182, Note_on_c, 1, 71, 0
2, 5184, Note_on_c, 1, 66, 110
2, 5184, Note_on_c, 1, 70, 110
2, 5184, Note_on_c, 1, 75, 110
2, 5344, Note_on_c, 1, 75, 0
2, 5344, Note_on_c, 1, 70, 0
2, 5344, Note_on_c, 1, 66, 0
2, 5376, Note_on_c, 1, 71, 110
2, 5376, Note_on_c, 1, 76, 110
2, 5470, Note_on_c, 1, 76, 0
2, 5470, Note_on_c, 1, 71, 0
2, 5472, Note_on_c, 1, 70, 110
2, 5472, Note_on_c, 1, 75, 110
2, 5566, Note_on_c, 1, 75, 0
2, 5566, Note_on_c, 1, 70, 0
2, 5568, Note_on_c, 1, 71, 110
2, 5568, Note_on_c, 1, 76, 110
2, 5728, Note_on_c, 1, 76, 0
2, 5728, Note_on_c, 1, 71, 0
2, 5760, Note_on_c, 1, 64, 110
2, 5760, Note_on_c, 1, 68, 110
2, 5760, Note_on_c, 1, 73, 110
2, 5854, Note_on_c, 1, 73, 0
2, 5854, Note_on_c, 1, 68, 0
2, 5854, Note_on_c, 1, 64, 0
2, 5856, Note_on_c, 1, 66, 110
2, 5856, Note_on_c, 1, 70, 110
2, 5856, Note_on_c, 1, 75, 110
2, 5950, Note_on_c, 1, 75, 0
2, 5950, Note_on_c, 1, 70, 0
2, 5950, Note_on_c, 1, 66, 0
2, 5952, Note_on_c, 1, 66, 110
2, 5952, Note_on_c, 1, 70, 110
2, 6304, Note_on_c, 1, 70, 0
2, 6304, Note_on_c, 1, 66, 0
2, 6304, End_track
3, 0, Start_track
3, 0, Title_t, "17"
3, 0, Program_c, 2, 0
3, 0, Program_c, 2, 0
3, 0, Note_on_c, 2, 65, 110
3, 0, Note_on_c, 2, 70, 110
3, 160, Note_on_c, 2, 70, 0
3, 160, Note_on_c, 2, 65, 0
3, 192, Note_on_c, 2, 68, 110
3, 192, Note_on_c, 2, 73, 110
3, 352, Note_on_c, 2, 73, 0
3, 352, Note_on_c, 2, 68, 0
3, 384, Note_on_c, 2, 62, 110
3, 384, Note_on_c, 2, 65, 110
3, 384, Note_on_c, 2, 70, 110
3, 544, Note_on_c, 2, 70, 0
3, 544, Note_on_c, 2, 65, 0
3, 544, Note_on_c, 2, 62, 0
3, 576, Note_on_c, 2, 61, 110
3, 576, Note_on_c, 2, 63, 110
3, 576, Note_on_c, 2, 68, 110
3, 670, Note_on_c, 2, 68, 0
3, 670, Note_on_c, 2, 63, 0
3, 670, Note_on_c, 2, 61, 0
3, 672, Note_on_c, 2, 63, 110
3, 672, Note_on_c, 2, 65, 110
3, 672, Note_on_c, 2, 70, 110
3, 766, Note_on_c, 2, 70, 0
3, 766, Note_on_c, 2, 65, 0
3, 766, Note_on_c, 2, 63, 0
3, 768, Note_on_c, 2, 68, 110
3, 768, Note_on_c, 2, 73, 110
3, 928, Note_on_c, 2, 73, 0
3, 928, Note_on_c, 2, 68, 0
3, 960, Note_on_c, 2, 65, 110
3, 960, Note_on_c, 2, 70, 110
3, 1120, Note_on_c, 2, 70, 0
3, 1120, Note_on_c, 2, 65, 0
3, 1344, Note_on_c, 2, 65, 110
3, 1344, Note_on_c, 2, 70, 110
3, 1504, Note_on_c, 2, 70, 0
3, 1504, Note_on_c, 2, 65, 0
3, 1536, Note_on_c, 2, 70, 110
3, 1536, Note_on_c, 2, 75, 110
3, 1630, Note_on_c, 2, 75, 0
3, 1630, Note_on_c, 2, 70, 0
3, 1632, Note_on_c, 2, 68, 110
3, 1632, Note_on_c, 2, 73, 110
3, 1726, Note_on_c, 2, 73, 0
3, 1726, Note_on_c, 2, 68, 0
3, 1728, Note_on_c, 2, 66, 110
3, 1728, Note_on_c, 2, 70, 110
3, 1728, Note_on_c, 2, 75, 110
3, 1888, Note_on_c, 2, 75, 0
3, 1888, Note_on_c, 2, 70, 0
3, 1888, Note_on_c, 2, 66, 0
3, 1920, Note_on_c, 2, 71, 110
3, 1920, Note_on_c, 2, 76, 110
3, 2014, Note_on_c, 2, 76, 0
3, 2014, Note_on_c, 2, 71, 0
3, 2016, Note_on_c, 2, 70, 110
3, 2016, Note_on_c, 2, 75, 110
3, 2110, Note_on_c, 2, 75, 0
3, 2110, Note_on_c, 2, 70, 0
3, 2112, Note_on_c, 2, 71, 110
3, 2112, Note_on_c, 2, 76, 110
3, 2206, Note_on_c, 2, 76, 0
3, 2206, Note_on_c, 2, 71, 0
3, 2208, Note_on_c, 2, 66, 110
3, 2208, Note_on_c, 2, 70, 110
3, 2208, Note_on_c, 2, 75, 110
3, 2398, Note_on_c, 2, 75, 0
3, 2398, Note_on_c, 2, 70, 0
3, 2398, Note_on_c, 2, 66, 0
3, 2400, Note_on_c, 2, 68, 110
3, 2400, Note_on_c, 2, 73, 110
3, 2494, Note_on_c, 2, 73, 0
3, 2494, Note_on_c, 2, 68, 0
3, 2496, Note_on_c, 2, 70, 110
3, 2496, Note_on_c, 2, 75, 110
3, 2590, Note_on_c, 2, 75, 0
3, 2590, Note_on_c, 2, 70, 0
3, 2592, Note_on_c, 2, 66, 110
3, 2592, Note_on_c, 2, 70, 110
3, 2752, Note_on_c, 2, 70, 0
3, 2752, Note_on_c, 2, 66, 0
3, 2976, Note_on_c, 2, 66, 110
3, 2976, Note_on_c, 2, 70, 110
3, 3166, Note_on_c, 2, 70, 0
3, 3166, Note_on_c, 2, 66, 0
3, 3168, Note_on_c, 2, 68, 110
3, 3168, Note_on_c, 2, 73, 110
3, 3328, Note_on_c, 2, 73, 0
3, 3328, Note_on_c, 2, 68, 0
3, 3360, Note_on_c, 2, 63, 110
3, 3360, Note_on_c, 2, 66, 110
3, 3360, Note_on_c, 2, 70, 110
3, 3520, Note_on_c, 2, 70, 0
3, 3520, Note_on_c, 2, 66, 0
3, 3520, Note_on_c, 2, 63, 0
3, 3552, Note_on_c, 2, 61, 110
3, 3552, Note_on_c, 2, 63, 110
3, 3552, Note_on_c, 2, 68, 110
3, 3646, Note_on_c, 2, 68, 0
3, 3646, Note_on_c, 2, 63, 0
3, 3646, Note_on_c, 2, 61, 0
3, 3648, Note_on_c, 2, 63, 110
3, 3648, Note_on_c, 2, 66, 110
3, 3648, Note_on_c, 2, 70, 110
3, 3742, Note_on_c, 2, 70, 0
3, 3742, Note_on_c, 2, 66, 0
3, 3742, Note_on_c, 2, 63, 0
3, 3744, Note_on_c, 2, 68, 110
3, 3744, Note_on_c, 2, 73, 110
3, 3934, Note_on_c, 2, 73, 0
3, 3934, Note_on_c, 2, 68, 0
3, 3936, Note_on_c, 2, 66, 110
3, 3936, Note_on_c, 2, 70, 110
3, 4096, Note_on_c, 2, 70, 0
3, 4096, Note_on_c, 2, 66, 0
3, 4320, Note_on_c, 2, 66, 110
3, 4320, Note_on_c, 2, 70, 110
3, 4480, Note_on_c, 2, 70, 0
3, 4480, Note_on_c, 2, 66, 0
3, 4512, Note_on_c, 2, 70, 110
3, 4512, Note_on_c, 2, 75, 110
3, 4606, Note_on_c, 2, 75, 0
3, 4606, Note_on_c, 2, 70, 0
3, 4608, Note_on_c, 2, 68, 110
3, 4608, Note_on_c, 2, 73, 110
3, 4702, Note_on_c, 2, 73, 0
3, 4702, Note_on_c, 2, 68, 0
3, 4704, Note_on_c, 2, 66, 110
3, 4704, Note_on_c, 2, 70, 110
3, 4704, Note_on_c, 2, 75, 110
3, 4864, Note_on_c, 2, 75, 0
3, 4864, Note_on_c, 2, 70, 0
3, 4864, Note_on_c, 2, 66, 0
3, 4896, Note_on_c, 2, 71, 110
3, 4896, Note_on_c, 2, 76, 110
3, 4990, Note_on_c, 2, 76, 0
3, 4990, Note_on_c, 2, 71, 0
3, 4992, Note_on_c, 2, 70, 110
3, 4992, Note_on_c, 2, 75, 110
3, 5086, Note_on_c, 2, 75, 0
3, 5086, Note_on_c, 2, 70, 0
3, 5088, Note_on_c, 2, 71, 110
3, 5088, Note_on_c, 2, 76, 110
3, 5182, Note_on_c, 2, 76, 0
3, 5182, Note_on_c, 2, 71, 0
3, 5184, Note_on_c, 2, 66, 110
3, 5184, Note_on_c, 2, 70, 110
3, 5184, Note_on_c, 2, 75, 110
3, 5344, Note_on_c, 2, 75, 0
3, 5344, Note_on_c, 2, 70, 0
3, 5344, Note_on_c, 2, 66, 0
3, 5376, Note_on_c, 2, 71, 110
3, 5376, Note_on_c, 2, 76, 110
3, 5470, Note_on_c, 2, 76, 0
3, 5470, Note_on_c, 2, 71, 0
3, 5472, Note_on_c, 2, 70, 110
3, 5472, Note_on_c, 2, 75, 110
3, 5566, Note_on_c, 2, 75, 0
3, 5566, Note_on_c, 2, 70, 0
3, 5568, Note_on_c, 2, 71, 110
3, 5568, Note_on_c, 2, 76, 110
3, 5728, Note_on_c, 2, 76, 0
3, 5728, Note_on_c, 2, 71, 0
3, 5760, Note_on_c, 2, 64, 110
3, 5760, Note_on_c, 2, 68, 110
3, 5760, Note_on_c, 2, 73, 110
3, 5854, Note_on_c, 2, 73, 0
3, 5854, Note_on_c, 2, 68, 0
3, 5854, Note_on_c, 2, 64, 0
3, 5856, Note_on_c, 2, 66, 110
3, 5856, Note_on_c, 2, 70, 110
3, 5856, Note_on_c, 2, 75, 110
3, 5950, Note_on_c, 2, 75, 0
3, 5950, Note_on_c, 2, 70, 0
3, 5950, Note_on_c, 2, 66, 0
3, 5952, Note_on_c, 2, 66, 110
3, 5952, Note_on_c, 2, 70, 110
3, 6304, Note_on_c, 2, 70, 0
3, 6304, Note_on_c, 2, 66, 0
3, 6304, End_track
4, 0, Start_track
4, 0, End_track
0, 0, End_of_file
