0, 0, Header, 1, 4, 960
1, 0, Start_track
1, 0, Title_t, "Track 1"
1, 0, Program_c, 1, 1
1, 0, Tempo, 62500
1, 3840, Note_on_c, 1, 72, 127
1, 15360, Note_off_c, 1, 72, 127
1, 15360, Note_on_c, 1, 74, 127
1, 19200, Note_off_c, 1, 74, 127
1, 19200, Note_on_c, 1, 74, 127
1, 26880, Note_off_c, 1, 74, 127
1, 26880, Note_on_c, 1, 69, 127
1, 30720, Note_off_c, 1, 69, 127
1, 30720, Note_on_c, 1, 72, 127
1, 34560, Note_off_c, 1, 72, 127
1, 34560, Note_on_c, 1, 69, 127
1, 38400, Note_off_c, 1, 69, 127
1, 38400, Note_on_c, 1, 74, 127
1, 49920, Note_off_c, 1, 74, 127
1, 57600, Note_on_c, 1, 74, 127
1, 69120, Note_off_c, 1, 74, 127
1, 69120, Note_on_c, 1, 74, 127
1, 72960, Note_off_c, 1, 74, 127
1, 72960, Note_on_c, 1, 76, 127
1, 76800, Note_off_c, 1, 76, 127
1, 76800, Note_on_c, 1, 76, 127
1, 84480, Note_off_c, 1, 76, 127
1, 84480, Note_on_c, 1, 76, 127
1, 88320, Note_off_c, 1, 76, 127
1, 88320, Note_on_c, 1, 71, 127
1, 92160, Note_off_c, 1, 71, 127
1, 92160, Note_on_c, 1, 74, 127
1, 96000, Note_off_c, 1, 74, 127
1, 96000, Note_on_c, 1, 71, 127
1, 99840, Note_off_c, 1, 71, 127
1, 99840, Note_on_c, 1, 76, 127
1, 115200, Note_off_c, 1, 76, 127
1, 117120, Note_on_c, 1, 76, 127
1, 120960, Note_off_c, 1, 76, 127
1, 120960, Note_on_c, 1, 76, 127
1, 128640, Note_off_c, 1, 76, 127
1, 128640, Note_on_c, 1, 77, 127
1, 132480, Note_off_c, 1, 77, 127
1, 132480, Note_on_c, 1, 77, 127
1, 140160, Note_off_c, 1, 77, 127
1, 140160, Note_on_c, 1, 76, 127
1, 144000, Note_off_c, 1, 76, 127
1, 144000, Note_on_c, 1, 76, 127
1, 147840, Note_off_c, 1, 76, 127
1, 147840, Note_on_c, 1, 67, 127
1, 151680, Note_off_c, 1, 67, 127
1, 151680, Note_on_c, 1, 69, 127
1, 155520, Note_off_c, 1, 69, 127
1, 155520, Note_on_c, 1, 71, 127
1, 159360, Note_off_c, 1, 71, 127
1, 163200, Note_on_c, 1, 67, 127
1, 174720, Note_off_c, 1, 67, 127
1, 174720, Note_on_c, 1, 72, 127
1, 178560, Note_off_c, 1, 72, 127
1, 178560, Note_on_c, 1, 67, 127
1, 182400, Note_off_c, 1, 67, 127
1, 182400, Note_on_c, 1, 69, 127
1, 186240, Note_off_c, 1, 69, 127
1, 186240, Note_on_c, 1, 72, 127
1, 190080, Note_off_c, 1, 72, 127
1, 190080, Note_on_c, 1, 74, 127
1, 197760, Note_off_c, 1, 74, 127
1, 197760, Note_on_c, 1, 72, 127
1, 205440, Note_off_c, 1, 72, 127
1, 205440, Note_on_c, 1, 74, 127
1, 209280, Note_off_c, 1, 74, 127
1, 209280, Note_on_c, 1, 69, 127
1, 213120, Note_off_c, 1, 69, 127
1, 213120, Note_on_c, 1, 72, 127
1, 216960, Note_off_c, 1, 72, 127
1, 216960, Note_on_c, 1, 67, 127
1, 220800, Note_off_c, 1, 67, 127
1, 220800, Note_on_c, 1, 65, 127
1, 251520, Note_off_c, 1, 65, 127
1, 251520, End_track
2, 0, Start_track
2, 0, Title_t, "Track 2"
2, 0, Program_c, 2, 1
2, 0, Tempo, 62500
2, 3840, Note_on_c, 2, 60, 100
2, 15360, Note_off_c, 2, 60, 100
2, 15360, Note_on_c, 2, 62, 100
2, 19200, Note_off_c, 2, 62, 100
2, 19200, Note_on_c, 2, 62, 100
2, 26880, Note_off_c, 2, 62, 100
2, 26880, Note_on_c, 2, 57, 100
2, 30720, Note_off_c, 2, 57, 100
2, 30720, Note_on_c, 2, 60, 100
2, 34560, Note_off_c, 2, 60, 100
2, 34560, Note_on_c, 2, 57, 100
2, 38400, Note_off_c, 2, 57, 100
2, 38400, Note_on_c, 2, 62, 100
2, 49920, Note_off_c, 2, 62, 100
2, 57600, Note_on_c, 2, 62, 100
2, 69120, Note_off_c, 2, 62, 100
2, 69120, Note_on_c, 2, 62, 100
2, 72960, Note_off_c, 2, 62, 100
2, 72960, Note_on_c, 2, 64, 100
2, 76800, Note_off_c, 2, 64, 100
2, 76800, Note_on_c, 2, 64, 100
2, 84480, Note_off_c, 2, 64, 100
2, 84480, Note_on_c, 2, 64, 100
2, 88320, Note_off_c, 2, 64, 100
2, 88320, Note_on_c, 2, 59, 100
2, 92160, Note_off_c, 2, 59, 100
2, 92160, Note_on_c, 2, 62, 100
2, 96000, Note_off_c, 2, 62, 100
2, 96000, Note_on_c, 2, 59, 100
2, 99840, Note_off_c, 2, 59, 100
2, 99840, Note_on_c, 2, 64, 100
2, 115200, Note_off_c, 2, 64, 100
2, 117120, Note_on_c, 2, 64, 100
2, 120960, Note_off_c, 2, 64, 100
2, 120960, Note_on_c, 2, 64, 100
2, 128640, Note_off_c, 2, 64, 100
2, 128640, Note_on_c, 2, 65, 100
2, 132480, Note_off_c, 2, 65, 100
2, 132480, Note_on_c, 2, 65, 100
2, 140160, Note_off_c, 2, 65, 100
2, 140160, Note_on_c, 2, 64, 100
2, 144000, Note_off_c, 2, 64, 100
2, 144000, Note_on_c, 2, 64, 100
2, 147840, Note_off_c, 2, 64, 100
2, 147840, Note_on_c, 2, 55, 100
2, 151680, Note_off_c, 2, 55, 100
2, 151680, Note_on_c, 2, 57, 100
2, 155520, Note_off_c, 2, 57, 100
2, 155520, Note_on_c, 2, 59, 100
2, 159360, Note_off_c, 2, 59, 100
2, 163200, Note_on_c, 2, 55, 100
2, 174720, Note_off_c, 2, 55, 100
2, 174720, Note_on_c, 2, 60, 100
2, 178560, Note_off_c, 2, 60, 100
2, 178560, Note_on_c, 2, 55, 100
2, 182400, Note_off_c, 2, 55, 100
2, 182400, Note_on_c, 2, 57, 100
2, 186240, Note_off_c, 2, 57, 100
2, 186240, Note_on_c, 2, 60, 100
2, 190080, Note_off_c, 2, 60, 100
2, 190080, Note_on_c, 2, 62, 100
2, 197760, Note_off_c, 2, 62, 100
2, 197760, Note_on_c, 2, 60, 100
2, 205440, Note_off_c, 2, 60, 100
2, 205440, Note_on_c, 2, 62, 100
2, 209280, Note_off_c, 2, 62, 100
2, 209280, Note_on_c, 2, 57, 100
2, 213120, Note_off_c, 2, 57, 100
2, 213120, Note_on_c, 2, 60, 100
2, 216960, Note_off_c, 2, 60, 100
2, 216960, Note_on_c, 2, 55, 100
2, 220800, Note_off_c, 2, 55, 100
2, 220800, Note_on_c, 2, 53, 100
2, 251520, Note_off_c, 2, 53, 100
2, 251520, End_track
3, 0, Start_track
3, 0, Title_t, "Track 3"
3, 0, Program_c, 3, 118
3, 0, Tempo, 62500
3, 3840, Note_on_c, 3, 48, 80
3, 15360, Note_off_c, 3, 48, 80
3, 15360, Note_on_c, 3, 50, 80
3, 19200, Note_off_c, 3, 50, 80
3, 19200, Note_on_c, 3, 50, 80
3, 26880, Note_off_c, 3, 50, 80
3, 26880, Note_on_c, 3, 45, 80
3, 30720, Note_off_c, 3, 45, 80
3, 30720, Note_on_c, 3, 48, 80
3, 34560, Note_off_c, 3, 48, 80
3, 34560, Note_on_c, 3, 45, 80
3, 38400, Note_off_c, 3, 45, 80
3, 38400, Note_on_c, 3, 50, 80
3, 49920, Note_off_c, 3, 50, 80
3, 57600, Note_on_c, 3, 50, 80
3, 69120, Note_off_c, 3, 50, 80
3, 69120, Note_on_c, 3, 50, 80
3, 72960, Note_off_c, 3, 50, 80
3, 72960, Note_on_c, 3, 52, 80
3, 76800, Note_off_c, 3, 52, 80
3, 76800, Note_on_c, 3, 52, 80
3, 84480, Note_off_c, 3, 52, 80
3, 84480, Note_on_c, 3, 52, 80
3, 88320, Note_off_c, 3, 52, 80
3, 88320, Note_on_c, 3, 47, 80
3, 92160, Note_off_c, 3, 47, 80
3, 92160, Note_on_c, 3, 50, 80
3, 96000, Note_off_c, 3, 50, 80
3, 96000, Note_on_c, 3, 47, 80
3, 99840, Note_off_c, 3, 47, 80
3, 99840, Note_on_c, 3, 52, 80
3, 115200, Note_off_c, 3, 52, 80
3, 117120, Note_on_c, 3, 52, 80
3, 120960, Note_off_c, 3, 52, 80
3, 120960, Note_on_c, 3, 52, 80
3, 128640, Note_off_c, 3, 52, 80
3, 128640, Note_on_c, 3, 53, 80
3, 132480, Note_off_c, 3, 53, 80
3, 132480, Note_on_c, 3, 53, 80
3, 140160, Note_off_c, 3, 53, 80
3, 140160, Note_on_c, 3, 52, 80
3, 144000, Note_off_c, 3, 52, 80
3, 144000, Note_on_c, 3, 52, 80
3, 147840, Note_off_c, 3, 52, 80
3, 147840, Note_on_c, 3, 43, 80
3, 151680, Note_off_c, 3, 43, 80
3, 151680, Note_on_c, 3, 45, 80
3, 155520, Note_off_c, 3, 45, 80
3, 155520, Note_on_c, 3, 47, 80
3, 159360, Note_off_c, 3, 47, 80
3, 163200, Note_on_c, 3, 43, 80
3, 174720, Note_off_c, 3, 43, 80
3, 174720, Note_on_c, 3, 48, 80
3, 178560, Note_off_c, 3, 48, 80
3, 178560, Note_on_c, 3, 43, 80
3, 182400, Note_off_c, 3, 43, 80
3, 182400, Note_on_c, 3, 45, 80
3, 186240, Note_off_c, 3, 45, 80
3, 186240, Note_on_c, 3, 48, 80
3, 190080, Note_off_c, 3, 48, 80
3, 190080, Note_on_c, 3, 50, 80
3, 197760, Note_off_c, 3, 50, 80
3, 197760, Note_on_c, 3, 48, 80
3, 205440, Note_off_c, 3, 48, 80
3, 205440, Note_on_c, 3, 50, 80
3, 209280, Note_off_c, 3, 50, 80
3, 209280, Note_on_c, 3, 45, 80
3, 213120, Note_off_c, 3, 45, 80
3, 213120, Note_on_c, 3, 48, 80
3, 216960, Note_off_c, 3, 48, 80
3, 216960, Note_on_c, 3, 43, 80
3, 220800, Note_off_c, 3, 43, 80
3, 220800, Note_on_c, 3, 41, 80
3, 251520, Note_off_c, 3, 41, 80
3, 251520, End_track
4, 0, Start_track
4, 0, Title_t, "Track 4"
4, 0, Program_c, 4, 45
4, 0, Tempo, 62500
4, 3840, Note_on_c, 4, 48, 100
4, 15360, Note_off_c, 4, 48, 100
4, 15360, Note_on_c, 4, 50, 100
4, 19200, Note_off_c, 4, 50, 100
4, 19200, Note_on_c, 4, 50, 100
4, 26880, Note_off_c, 4, 50, 100
4, 26880, Note_on_c, 4, 45, 100
4, 30720, Note_off_c, 4, 45, 100
4, 30720, Note_on_c, 4, 48, 100
4, 34560, Note_off_c, 4, 48, 100
4, 34560, Note_on_c, 4, 45, 100
4, 38400, Note_off_c, 4, 45, 100
4, 38400, Note_on_c, 4, 50, 100
4, 49920, Note_off_c, 4, 50, 100
4, 57600, Note_on_c, 4, 50, 100
4, 69120, Note_off_c, 4, 50, 100
4, 69120, Note_on_c, 4, 50, 100
4, 72960, Note_off_c, 4, 50, 100
4, 72960, Note_on_c, 4, 52, 100
4, 76800, Note_off_c, 4, 52, 100
4, 76800, Note_on_c, 4, 52, 100
4, 84480, Note_off_c, 4, 52, 100
4, 84480, Note_on_c, 4, 52, 100
4, 88320, Note_off_c, 4, 52, 100
4, 88320, Note_on_c, 4, 47, 100
4, 92160, Note_off_c, 4, 47, 100
4, 92160, Note_on_c, 4, 50, 100
4, 96000, Note_off_c, 4, 50, 100
4, 96000, Note_on_c, 4, 47, 100
4, 99840, Note_off_c, 4, 47, 100
4, 99840, Note_on_c, 4, 52, 100
4, 115200, Note_off_c, 4, 52, 100
4, 117120, Note_on_c, 4, 52, 100
4, 120960, Note_off_c, 4, 52, 100
4, 120960, Note_on_c, 4, 52, 100
4, 128640, Note_off_c, 4, 52, 100
4, 128640, Note_on_c, 4, 53, 100
4, 132480, Note_off_c, 4, 53, 100
4, 132480, Note_on_c, 4, 53, 100
4, 140160, Note_off_c, 4, 53, 100
4, 140160, Note_on_c, 4, 52, 100
4, 144000, Note_off_c, 4, 52, 100
4, 144000, Note_on_c, 4, 52, 100
4, 147840, Note_off_c, 4, 52, 100
4, 147840, Note_on_c, 4, 43, 100
4, 151680, Note_off_c, 4, 43, 100
4, 151680, Note_on_c, 4, 45, 100
4, 155520, Note_off_c, 4, 45, 100
4, 155520, Note_on_c, 4, 47, 100
4, 159360, Note_off_c, 4, 47, 100
4, 163200, Note_on_c, 4, 43, 100
4, 174720, Note_off_c, 4, 43, 100
4, 174720, Note_on_c, 4, 48, 100
4, 178560, Note_off_c, 4, 48, 100
4, 178560, Note_on_c, 4, 43, 100
4, 182400, Note_off_c, 4, 43, 100
4, 182400, Note_on_c, 4, 45, 100
4, 186240, Note_off_c, 4, 45, 100
4, 186240, Note_on_c, 4, 48, 100
4, 190080, Note_off_c, 4, 48, 100
4, 190080, Note_on_c, 4, 50, 100
4, 197760, Note_off_c, 4, 50, 100
4, 197760, Note_on_c, 4, 48, 100
4, 205440, Note_off_c, 4, 48, 100
4, 205440, Note_on_c, 4, 50, 100
4, 209280, Note_off_c, 4, 50, 100
4, 209280, Note_on_c, 4, 45, 100
4, 213120, Note_off_c, 4, 45, 100
4, 213120, Note_on_c, 4, 48, 100
4, 216960, Note_off_c, 4, 48, 100
4, 216960, Note_on_c, 4, 43, 100
4, 220800, Note_off_c, 4, 43, 100
4, 220800, Note_on_c, 4, 41, 100
4, 251520, Note_off_c, 4, 41, 100
4, 251520, End_track
0, 0, End_of_file
